<svg xmlns="http://www.w3.org/2000/svg" xmlns:xlink="http://www.w3.org/1999/xlink" width="300" zoomAndPan="magnify" viewBox="0 0 224.87999 89.999999" height="120" preserveAspectRatio="xMidYMid meet" version="1.0"><defs><g/><clipPath id="560bb91bb1"><path d="M 0 0.0234375 L 224.761719 0.0234375 L 224.761719 89.976562 L 0 89.976562 Z M 0 0.0234375 " clip-rule="nonzero"/></clipPath><clipPath id="044291cdf5"><path d="M 1.464844 15.597656 L 40.445312 15.597656 L 40.445312 71.816406 L 1.464844 71.816406 Z M 1.464844 15.597656 " clip-rule="nonzero"/></clipPath></defs><g clip-path="url(#560bb91bb1)"><path fill="#ffffff" d="M 0 0.0234375 L 224.878906 0.0234375 L 224.878906 89.976562 L 0 89.976562 Z M 0 0.0234375 " fill-opacity="1" fill-rule="nonzero"/><path fill="#ffffff" d="M 0 0.0234375 L 224.878906 0.0234375 L 224.878906 89.976562 L 0 89.976562 Z M 0 0.0234375 " fill-opacity="1" fill-rule="nonzero"/></g><g clip-path="url(#044291cdf5)"><path fill="#2ecc71" d="M 15.09375 67.066406 C 15.535156 69.871094 17.96875 72.019531 20.90625 72.019531 C 23.84375 72.019531 26.277344 69.871094 26.722656 67.066406 C 26.757812 66.828125 26.695312 66.601562 26.539062 66.40625 C 26.386719 66.214844 26.167969 66.121094 25.929688 66.121094 L 15.898438 66.121094 C 15.65625 66.121094 15.441406 66.214844 15.285156 66.40625 C 15.117188 66.601562 15.058594 66.816406 15.09375 67.066406 Z M 27.308594 57.082031 C 29.167969 57.082031 30.675781 58.59375 30.675781 60.449219 C 30.675781 62.308594 29.167969 63.820312 27.308594 63.820312 L 14.507812 63.820312 C 12.648438 63.820312 11.136719 62.308594 11.136719 60.449219 C 11.136719 59.335938 11.6875 58.339844 12.527344 57.730469 L 25.796875 47.398438 C 26.792969 46.617188 27.859375 45.753906 28.890625 44.988281 C 30.328125 43.824219 31.515625 42.351562 32.34375 40.683594 C 33.15625 39.019531 33.625 37.113281 33.625 35.085938 C 33.625 31.574219 32.199219 28.398438 29.898438 26.097656 C 27.597656 23.792969 24.417969 22.367188 20.90625 22.367188 C 17.394531 22.367188 14.21875 23.792969 11.917969 26.097656 C 9.617188 28.398438 8.1875 31.574219 8.1875 35.085938 C 8.1875 37.519531 8.859375 39.785156 10.023438 41.691406 C 11.234375 43.679688 12.984375 45.324219 15.070312 46.390625 C 16.710938 47.242188 17.359375 49.265625 16.519531 50.910156 C 15.667969 52.550781 13.644531 53.199219 12 52.359375 C 8.824219 50.71875 6.152344 48.222656 4.292969 45.179688 C 2.507812 42.230469 1.464844 38.777344 1.464844 35.085938 C 1.464844 29.714844 3.644531 24.863281 7.15625 21.335938 C 10.683594 17.824219 15.535156 15.644531 20.90625 15.644531 C 26.277344 15.644531 31.132812 17.824219 34.65625 21.335938 C 38.167969 24.851562 40.351562 29.714844 40.351562 35.085938 C 40.351562 38.132812 39.628906 41.03125 38.359375 43.632812 C 37.089844 46.210938 35.28125 48.464844 33.074219 50.25 C 31.984375 51.160156 30.617188 52.179688 29.488281 53.054688 L 24.3125 57.082031 Z M 27.308594 57.082031 " fill-opacity="1" fill-rule="evenodd"/></g><g fill="#000000" fill-opacity="0.4"><g transform="translate(44.825323, 59.573055)"><g><path d="M 13.765625 -35.5625 L 19 -35.5625 L 30.53125 -2.796875 L 33.46875 -2.328125 L 33.46875 0 L 20.9375 0 L 20.9375 -2.328125 L 24.875 -2.796875 L 22.65625 -9.828125 L 8.78125 -9.828125 L 6.546875 -2.796875 L 10.640625 -2.328125 L 10.640625 0 L -0.625 0 L -0.625 -2.328125 L 2.328125 -2.796875 Z M 16.765625 -27.96875 L 15.578125 -32.140625 L 14.4375 -27.875 L 9.640625 -12.625 L 21.75 -12.625 Z M 16.765625 -27.96875 "/></g></g></g><g fill="#000000" fill-opacity="0.4"><g transform="translate(75.593714, 59.573055)"><g><path d="M 2.234375 -2.328125 L 5.796875 -2.609375 L 5.796875 -22.703125 L 2.375 -23.546875 L 2.375 -26.109375 L 8.921875 -26.96875 L 9.015625 -26.96875 L 10.0625 -26.109375 L 10.0625 -25.265625 L 9.921875 -21.5625 L 10.0625 -21.5625 C 10.382812 -22.09375 10.957031 -22.785156 11.78125 -23.640625 C 12.601562 -24.492188 13.660156 -25.273438 14.953125 -25.984375 C 16.253906 -26.703125 17.664062 -27.0625 19.1875 -27.0625 C 19.820312 -27.0625 20.34375 -26.984375 20.75 -26.828125 L 20.75 -21.515625 C 20.53125 -21.671875 20.175781 -21.816406 19.6875 -21.953125 C 19.195312 -22.097656 18.648438 -22.171875 18.046875 -22.171875 C 15.421875 -22.171875 12.984375 -21.363281 10.734375 -19.75 L 10.734375 -2.65625 L 16.765625 -2.28125 L 16.765625 0 L 2.234375 0 Z M 2.234375 -2.328125 "/></g></g></g><g fill="#000000" fill-opacity="0.4"><g transform="translate(95.251211, 59.573055)"><g><path d="M 7.734375 -31.109375 C 6.722656 -31.109375 5.960938 -31.390625 5.453125 -31.953125 C 4.953125 -32.523438 4.703125 -33.253906 4.703125 -34.140625 C 4.703125 -35.148438 5.007812 -35.988281 5.625 -36.65625 C 6.238281 -37.320312 7.085938 -37.65625 8.171875 -37.65625 C 9.242188 -37.65625 10.03125 -37.367188 10.53125 -36.796875 C 11.039062 -36.234375 11.296875 -35.503906 11.296875 -34.609375 C 11.296875 -33.535156 10.988281 -32.679688 10.375 -32.046875 C 9.757812 -31.421875 8.894531 -31.109375 7.78125 -31.109375 Z M 5.84375 -22.703125 L 2.234375 -23.546875 L 2.234375 -26.0625 L 9.59375 -26.96875 L 9.6875 -26.96875 L 10.78125 -26.109375 L 10.78125 -2.703125 L 14.578125 -2.328125 L 14.578125 0 L 2 0 L 2 -2.328125 L 5.84375 -2.75 Z M 5.84375 -22.703125 "/></g></g></g><g fill="#000000" fill-opacity="0.4"><g transform="translate(108.973399, 59.573055)"><g><path d="M -0.046875 -26.359375 L 10.96875 -26.359375 L 10.96875 -24.125 L 7.59375 -23.5 L 12.390625 -9.828125 L 14.390625 -3.796875 L 16.09375 -9.640625 L 20.890625 -23.5 L 17.671875 -24.125 L 17.671875 -26.359375 L 27.296875 -26.359375 L 27.296875 -24.125 L 24.828125 -23.5 L 15.671875 0.375 L 11.640625 0.375 L 2.09375 -23.5 L -0.046875 -24.125 Z M -0.046875 -26.359375 "/></g></g></g><g fill="#000000" fill-opacity="0.4"><g transform="translate(133.853972, 59.573055)"><g><path d="M 2.140625 -13.25 C 2.140625 -16.09375 2.722656 -18.5625 3.890625 -20.65625 C 5.066406 -22.75 6.609375 -24.335938 8.515625 -25.421875 C 10.429688 -26.515625 12.484375 -27.0625 14.671875 -27.0625 C 18.660156 -27.0625 21.660156 -25.796875 23.671875 -23.265625 C 25.679688 -20.734375 26.6875 -17.410156 26.6875 -13.296875 C 26.6875 -10.410156 26.097656 -7.921875 24.921875 -5.828125 C 23.753906 -3.742188 22.210938 -2.164062 20.296875 -1.09375 C 18.378906 -0.0195312 16.332031 0.515625 14.15625 0.515625 C 10.164062 0.515625 7.164062 -0.75 5.15625 -3.28125 C 3.144531 -5.8125 2.140625 -9.132812 2.140625 -13.25 Z M 14.4375 -2.1875 C 16.625 -2.1875 18.300781 -3.085938 19.46875 -4.890625 C 20.632812 -6.691406 21.21875 -9.367188 21.21875 -12.921875 C 21.21875 -16.429688 20.679688 -19.210938 19.609375 -21.265625 C 18.535156 -23.328125 16.8125 -24.359375 14.4375 -24.359375 C 12.25 -24.359375 10.5625 -23.457031 9.375 -21.65625 C 8.1875 -19.851562 7.59375 -17.175781 7.59375 -13.625 C 7.59375 -10.113281 8.144531 -7.328125 9.25 -5.265625 C 10.363281 -3.210938 12.09375 -2.1875 14.4375 -2.1875 Z M 14.4375 -2.1875 "/></g></g></g><g fill="#000000" fill-opacity="0.4"><g transform="translate(160.633846, 59.573055)"><g><path d="M 2.09375 -2.328125 L 4.984375 -2.75 L 4.984375 -22.703125 L 1.5625 -23.546875 L 1.5625 -26.109375 L 8.359375 -26.96875 L 9.21875 -26.359375 L 9.5 -24.453125 L 9.453125 -22.9375 C 10.554688 -23.945312 12.066406 -24.867188 13.984375 -25.703125 C 15.898438 -26.546875 17.617188 -26.96875 19.140625 -26.96875 C 20.847656 -26.96875 22.222656 -26.679688 23.265625 -26.109375 C 24.304688 -25.546875 25.097656 -24.660156 25.640625 -23.453125 C 26.648438 -24.304688 28.066406 -25.101562 29.890625 -25.84375 C 31.710938 -26.59375 33.414062 -26.96875 35 -26.96875 C 36.957031 -26.96875 38.488281 -26.59375 39.59375 -25.84375 C 40.707031 -25.101562 41.492188 -23.945312 41.953125 -22.375 C 42.410156 -20.8125 42.640625 -18.71875 42.640625 -16.09375 L 42.640625 -2.75 L 46.0625 -2.328125 L 46.0625 0 L 34.765625 0 L 34.765625 -2.328125 L 37.703125 -2.75 L 37.703125 -15.953125 C 37.703125 -17.785156 37.566406 -19.25 37.296875 -20.34375 C 37.023438 -21.4375 36.515625 -22.25 35.765625 -22.78125 C 35.023438 -23.320312 33.960938 -23.59375 32.578125 -23.59375 C 31.523438 -23.59375 30.414062 -23.363281 29.25 -22.90625 C 28.082031 -22.445312 27.085938 -21.898438 26.265625 -21.265625 C 26.546875 -20.035156 26.6875 -18.28125 26.6875 -16 L 26.6875 -2.75 L 30.0625 -2.328125 L 30.0625 0 L 18.5625 0 L 18.5625 -2.328125 L 21.703125 -2.75 L 21.703125 -16.046875 C 21.703125 -17.953125 21.582031 -19.425781 21.34375 -20.46875 C 21.101562 -21.507812 20.648438 -22.289062 19.984375 -22.8125 C 19.328125 -23.332031 18.316406 -23.59375 16.953125 -23.59375 C 15.816406 -23.59375 14.601562 -23.304688 13.3125 -22.734375 C 12.03125 -22.171875 10.914062 -21.507812 9.96875 -20.75 L 9.96875 -2.75 L 13.15625 -2.328125 L 13.15625 0 L 2.09375 0 Z M 2.09375 -2.328125 "/></g></g></g><g fill="#2c3e50" fill-opacity="1"><g transform="translate(44.825323, 59.573055)"><g><path d="M 13.765625 -35.5625 L 19 -35.5625 L 30.53125 -2.796875 L 33.46875 -2.328125 L 33.46875 0 L 20.9375 0 L 20.9375 -2.328125 L 24.875 -2.796875 L 22.65625 -9.828125 L 8.78125 -9.828125 L 6.546875 -2.796875 L 10.640625 -2.328125 L 10.640625 0 L -0.625 0 L -0.625 -2.328125 L 2.328125 -2.796875 Z M 16.765625 -27.96875 L 15.578125 -32.140625 L 14.4375 -27.875 L 9.640625 -12.625 L 21.75 -12.625 Z M 16.765625 -27.96875 "/></g></g></g><g fill="#2c3e50" fill-opacity="1"><g transform="translate(75.593714, 59.573055)"><g><path d="M 2.234375 -2.328125 L 5.796875 -2.609375 L 5.796875 -22.703125 L 2.375 -23.546875 L 2.375 -26.109375 L 8.921875 -26.96875 L 9.015625 -26.96875 L 10.0625 -26.109375 L 10.0625 -25.265625 L 9.921875 -21.5625 L 10.0625 -21.5625 C 10.382812 -22.09375 10.957031 -22.785156 11.78125 -23.640625 C 12.601562 -24.492188 13.660156 -25.273438 14.953125 -25.984375 C 16.253906 -26.703125 17.664062 -27.0625 19.1875 -27.0625 C 19.820312 -27.0625 20.34375 -26.984375 20.75 -26.828125 L 20.75 -21.515625 C 20.53125 -21.671875 20.175781 -21.816406 19.6875 -21.953125 C 19.195312 -22.097656 18.648438 -22.171875 18.046875 -22.171875 C 15.421875 -22.171875 12.984375 -21.363281 10.734375 -19.75 L 10.734375 -2.65625 L 16.765625 -2.28125 L 16.765625 0 L 2.234375 0 Z M 2.234375 -2.328125 "/></g></g></g><g fill="#2c3e50" fill-opacity="1"><g transform="translate(95.251211, 59.573055)"><g><path d="M 7.734375 -31.109375 C 6.722656 -31.109375 5.960938 -31.390625 5.453125 -31.953125 C 4.953125 -32.523438 4.703125 -33.253906 4.703125 -34.140625 C 4.703125 -35.148438 5.007812 -35.988281 5.625 -36.65625 C 6.238281 -37.320312 7.085938 -37.65625 8.171875 -37.65625 C 9.242188 -37.65625 10.03125 -37.367188 10.53125 -36.796875 C 11.039062 -36.234375 11.296875 -35.503906 11.296875 -34.609375 C 11.296875 -33.535156 10.988281 -32.679688 10.375 -32.046875 C 9.757812 -31.421875 8.894531 -31.109375 7.78125 -31.109375 Z M 5.84375 -22.703125 L 2.234375 -23.546875 L 2.234375 -26.0625 L 9.59375 -26.96875 L 9.6875 -26.96875 L 10.78125 -26.109375 L 10.78125 -2.703125 L 14.578125 -2.328125 L 14.578125 0 L 2 0 L 2 -2.328125 L 5.84375 -2.75 Z M 5.84375 -22.703125 "/></g></g></g><g fill="#2c3e50" fill-opacity="1"><g transform="translate(108.973399, 59.573055)"><g><path d="M -0.046875 -26.359375 L 10.96875 -26.359375 L 10.96875 -24.125 L 7.59375 -23.5 L 12.390625 -9.828125 L 14.390625 -3.796875 L 16.09375 -9.640625 L 20.890625 -23.5 L 17.671875 -24.125 L 17.671875 -26.359375 L 27.296875 -26.359375 L 27.296875 -24.125 L 24.828125 -23.5 L 15.671875 0.375 L 11.640625 0.375 L 2.09375 -23.5 L -0.046875 -24.125 Z M -0.046875 -26.359375 "/></g></g></g><g fill="#2c3e50" fill-opacity="1"><g transform="translate(133.853972, 59.573055)"><g><path d="M 2.140625 -13.25 C 2.140625 -16.09375 2.722656 -18.5625 3.890625 -20.65625 C 5.066406 -22.75 6.609375 -24.335938 8.515625 -25.421875 C 10.429688 -26.515625 12.484375 -27.0625 14.671875 -27.0625 C 18.660156 -27.0625 21.660156 -25.796875 23.671875 -23.265625 C 25.679688 -20.734375 26.6875 -17.410156 26.6875 -13.296875 C 26.6875 -10.410156 26.097656 -7.921875 24.921875 -5.828125 C 23.753906 -3.742188 22.210938 -2.164062 20.296875 -1.09375 C 18.378906 -0.0195312 16.332031 0.515625 14.15625 0.515625 C 10.164062 0.515625 7.164062 -0.75 5.15625 -3.28125 C 3.144531 -5.8125 2.140625 -9.132812 2.140625 -13.25 Z M 14.4375 -2.1875 C 16.625 -2.1875 18.300781 -3.085938 19.46875 -4.890625 C 20.632812 -6.691406 21.21875 -9.367188 21.21875 -12.921875 C 21.21875 -16.429688 20.679688 -19.210938 19.609375 -21.265625 C 18.535156 -23.328125 16.8125 -24.359375 14.4375 -24.359375 C 12.25 -24.359375 10.5625 -23.457031 9.375 -21.65625 C 8.1875 -19.851562 7.59375 -17.175781 7.59375 -13.625 C 7.59375 -10.113281 8.144531 -7.328125 9.25 -5.265625 C 10.363281 -3.210938 12.09375 -2.1875 14.4375 -2.1875 Z M 14.4375 -2.1875 "/></g></g></g><g fill="#2c3e50" fill-opacity="1"><g transform="translate(160.633846, 59.573055)"><g><path d="M 2.09375 -2.328125 L 4.984375 -2.75 L 4.984375 -22.703125 L 1.5625 -23.546875 L 1.5625 -26.109375 L 8.359375 -26.96875 L 9.21875 -26.359375 L 9.5 -24.453125 L 9.453125 -22.9375 C 10.554688 -23.945312 12.066406 -24.867188 13.984375 -25.703125 C 15.898438 -26.546875 17.617188 -26.96875 19.140625 -26.96875 C 20.847656 -26.96875 22.222656 -26.679688 23.265625 -26.109375 C 24.304688 -25.546875 25.097656 -24.660156 25.640625 -23.453125 C 26.648438 -24.304688 28.066406 -25.101562 29.890625 -25.84375 C 31.710938 -26.59375 33.414062 -26.96875 35 -26.96875 C 36.957031 -26.96875 38.488281 -26.59375 39.59375 -25.84375 C 40.707031 -25.101562 41.492188 -23.945312 41.953125 -22.375 C 42.410156 -20.8125 42.640625 -18.71875 42.640625 -16.09375 L 42.640625 -2.75 L 46.0625 -2.328125 L 46.0625 0 L 34.765625 0 L 34.765625 -2.328125 L 37.703125 -2.75 L 37.703125 -15.953125 C 37.703125 -17.785156 37.566406 -19.25 37.296875 -20.34375 C 37.023438 -21.4375 36.515625 -22.25 35.765625 -22.78125 C 35.023438 -23.320312 33.960938 -23.59375 32.578125 -23.59375 C 31.523438 -23.59375 30.414062 -23.363281 29.25 -22.90625 C 28.082031 -22.445312 27.085938 -21.898438 26.265625 -21.265625 C 26.546875 -20.035156 26.6875 -18.28125 26.6875 -16 L 26.6875 -2.75 L 30.0625 -2.328125 L 30.0625 0 L 18.5625 0 L 18.5625 -2.328125 L 21.703125 -2.75 L 21.703125 -16.046875 C 21.703125 -17.953125 21.582031 -19.425781 21.34375 -20.46875 C 21.101562 -21.507812 20.648438 -22.289062 19.984375 -22.8125 C 19.328125 -23.332031 18.316406 -23.59375 16.953125 -23.59375 C 15.816406 -23.59375 14.601562 -23.304688 13.3125 -22.734375 C 12.03125 -22.171875 10.914062 -21.507812 9.96875 -20.75 L 9.96875 -2.75 L 13.15625 -2.328125 L 13.15625 0 L 2.09375 0 Z M 2.09375 -2.328125 "/></g></g></g></svg>